<?xml version="1.0" encoding="UTF-8"?>
<svg id="Camada_2" xmlns="http://www.w3.org/2000/svg" viewBox="0 0 785.51 785.51">
  <defs>
    <style>
      .cls-1 {
        fill: #1a1a1a;
      }

      .cls-2 {
        fill: #ffe739;
      }
    </style>
  </defs>
  <g id="_Слой_1" data-name="Слой_1">
    <g id="alcaline">
      <circle id="_x30_" class="cls-2" cx="392.75" cy="392.75" r="392.75"/>
      <g id="alkaline">
        <path class="cls-1" d="M392.75,747.47c-47.88,0-94.34-9.38-138.07-27.88-21.02-8.89-41.29-19.9-60.26-32.71-18.78-12.69-36.44-27.26-52.49-43.31-16.05-16.05-30.62-33.71-43.31-52.49-12.81-18.96-23.82-39.24-32.71-60.26-18.5-43.74-27.88-90.19-27.88-138.07s9.38-94.34,27.88-138.07c8.89-21.02,19.89-41.29,32.71-60.26,12.69-18.78,27.26-36.44,43.31-52.49,16.05-16.05,33.71-30.62,52.49-43.31,18.96-12.81,39.24-23.82,60.26-32.71,43.74-18.5,90.19-27.88,138.07-27.88s94.34,9.38,138.07,27.88c21.02,8.89,41.29,19.89,60.26,32.71,18.78,12.69,36.44,27.26,52.49,43.31s30.62,33.71,43.31,52.49c12.81,18.96,23.82,39.24,32.71,60.26,18.5,43.74,27.88,90.19,27.88,138.07s-9.38,94.34-27.88,138.07c-8.89,21.02-19.9,41.29-32.71,60.26-12.69,18.78-27.26,36.44-43.31,52.49-16.05,16.05-33.71,30.62-52.49,43.31-18.96,12.81-39.24,23.82-60.26,32.71-43.74,18.5-90.19,27.88-138.07,27.88ZM392.75,58.04c-184.56,0-334.72,150.15-334.72,334.72s150.15,334.72,334.72,334.72,334.72-150.15,334.72-334.72S577.32,58.04,392.75,58.04Z"/>
        <path class="cls-1" d="M520.5,578.43c-28.04,0-52.57-14.94-66.11-37.29-.36-.6-1-.97-1.7-.97H144.88c-1.55,0-2.53,1.7-1.72,3.03,51.03,84.47,143.71,140.95,249.59,140.95s198.56-56.48,249.59-140.95c.8-1.33-.17-3.03-1.72-3.03h-52.31c-.7,0-1.34.37-1.7.97-13.54,22.35-38.07,37.29-66.11,37.29Z"/>
        <path class="cls-1" d="M541.52,312.3l-46-126.39c-1.23-3.39-4.35-5.69-7.9-5.87-3.62-.21-6.98,1.76-8.55,5.02-6.21,12.8-18.13,23.18-32.71,28.49l-298.21,108.54c-33.45,12.18-53.19,44.67-44.94,73.98,4.04,14.34,13.9,26.16,27.78,33.27,9.01,4.62,19.37,7.06,29.97,7.06h.01c8.48,0,16.92-1.51,25.08-4.48l300.03-109.2c14.59-5.31,30.4-5.02,43.38.79,3.28,1.46,7.1.83,9.74-1.62,2.62-2.45,3.53-6.21,2.3-9.59ZM154.27,338.89l298.21-108.54c12.57-4.58,23.75-12.19,32.24-21.85l31.87,87.56-393.24,69.41c5.73-11.7,16.98-21.52,30.92-26.59h0Z"/>
        <path class="cls-1" d="M551.78,352.83c-.44-.78-1.79-2.87-1.94-3.11-.55-.85-1.49-1.36-2.5-1.36s-1.95.51-2.5,1.36c-.25.38-1.51,2.34-1.94,3.11-15.98,29-16.12,40.56-16.39,46.43,0,11.49,9.35,20.84,20.84,20.84s20.84-9.35,20.84-20.84c-.28-5.88-.41-17.43-16.4-46.43Z"/>
        <path class="cls-1" d="M525.95,458.32c-.44-.78-1.79-2.87-1.94-3.11-.55-.85-1.49-1.36-2.5-1.36s-1.95.51-2.5,1.36c-.25.38-1.51,2.34-1.94,3.11-15.98,29-16.12,40.56-16.39,46.43,0,11.49,9.35,20.84,20.84,20.84s20.84-9.35,20.84-20.84c-.28-5.88-.41-17.43-16.4-46.43Z"/>
      </g>
    </g>
  </g>
</svg>