<?xml version="1.0" encoding="UTF-8"?>
<svg id="Camada_2" xmlns="http://www.w3.org/2000/svg" viewBox="0 0 785.51 785.51">
  <defs>
    <style>
      .cls-1 {
        fill: #1a1a1a;
      }

      .cls-2 {
        fill: #ffe739;
      }
    </style>
  </defs>
  <g id="_Слой_1" data-name="Слой_1">
    <g id="biologiocal">
      <circle id="_x30_" class="cls-2" cx="392.75" cy="392.75" r="392.75"/>
      <g id="biohazard">
        <path class="cls-1" d="M392.75,747.47c-47.88,0-94.34-9.38-138.07-27.88-21.02-8.89-41.29-19.9-60.26-32.71-18.78-12.69-36.44-27.26-52.49-43.31-16.05-16.05-30.62-33.71-43.31-52.49-12.81-18.96-23.82-39.24-32.71-60.26-18.5-43.74-27.88-90.19-27.88-138.07s9.38-94.34,27.88-138.07c8.89-21.02,19.89-41.29,32.71-60.26,12.69-18.78,27.26-36.44,43.31-52.49,16.05-16.05,33.71-30.62,52.49-43.31,18.96-12.81,39.24-23.82,60.26-32.71,43.74-18.5,90.19-27.88,138.07-27.88s94.34,9.38,138.07,27.88c21.02,8.89,41.29,19.89,60.26,32.71,18.78,12.69,36.44,27.26,52.49,43.31,16.05,16.05,30.62,33.71,43.31,52.49,12.81,18.96,23.82,39.24,32.71,60.26,18.5,43.74,27.88,90.19,27.88,138.07s-9.38,94.34-27.88,138.07c-8.89,21.02-19.9,41.29-32.71,60.26-12.69,18.78-27.26,36.44-43.31,52.49-16.05,16.05-33.71,30.62-52.49,43.31-18.96,12.81-39.24,23.82-60.26,32.71-43.74,18.5-90.19,27.88-138.07,27.88ZM392.75,58.04c-184.56,0-334.72,150.15-334.72,334.72s150.15,334.72,334.72,334.72,334.72-150.15,334.72-334.72S577.32,58.04,392.75,58.04Z"/>
        <path class="cls-1" d="M492.92,394.24c-.47,35.52-19.4,66.67-47.61,84.27-.3.19-.49.53-.47.88.3,8.45,1.7,16.82,4.16,24.87.18.6.88.89,1.44.6,40.34-21.11,67.93-63.39,67.93-111.99,0-2.62-.09-5.22-.25-7.81-.04-.62-.64-1.07-1.25-.92-8.22,2.03-16.1,5.14-23.44,9.22-.31.17-.51.51-.51.86Z"/>
        <path class="cls-1" d="M290.71,395.28c-7.41-3.95-15.34-6.93-23.61-8.84-.61-.14-1.21.31-1.23.94-.08,1.82-.12,3.66-.12,5.5,0,49.41,28.52,92.27,69.95,113.02.56.28,1.25-.02,1.42-.62,2.33-8.08,3.59-16.47,3.73-24.94,0-.36-.18-.69-.49-.87-28.56-17.12-48-47.94-49.13-83.32-.01-.36-.21-.69-.53-.85Z"/>
        <path class="cls-1" d="M392.06,266.56c-25.75,0-49.72,7.75-69.72,21.03-.52.35-.6,1.09-.17,1.54,5.83,6.05,12.46,11.33,19.72,15.69.31.18.69.19,1,.01,14.56-8.16,31.32-12.84,49.16-12.84s33.36,4.31,47.53,11.92c.32.17.7.16,1.01-.03,7.15-4.48,13.69-9.87,19.41-16.01.43-.46.33-1.2-.2-1.54-19.59-12.5-42.84-19.76-67.76-19.76Z"/>
        <path class="cls-1" d="M579.14,339.91c-21.6-11.98-45.14-17.47-68.34-17.15,11.35-20.05,17.83-43.21,17.83-67.89,0-57.11-34.69-106.12-84.15-127.1-1.16-.49-1.98,1.17-.88,1.79,32.49,18.43,54.44,53.28,54.56,93.27.16,55.05-41.88,101.21-95.68,107.17-.99.11-1.74.93-1.74,1.93v25.04c0,.88.59,1.63,1.43,1.88,14.67,4.35,25.38,17.93,25.38,34.02,0,2.87-.35,5.65-.99,8.32-.2.83.19,1.68.93,2.11l21.43,12.37c.88.51,1.99.25,2.57-.59,31.56-45.46,93.24-59.88,142.03-31.71,34.75,20.06,54.06,56.6,53.78,94.05,0,1.26,1.84,1.38,1.99.13,6.65-54.09-19.26-109.44-70.14-137.65Z"/>
        <path class="cls-1" d="M334.92,415.84l21.72-12.54c.74-.42,1.13-1.28.93-2.11-.64-2.67-.99-5.46-.99-8.33,0-16.08,10.7-29.67,25.38-34.02.84-.25,1.43-1,1.43-1.88v-24.74c0-1.02-.78-1.85-1.8-1.93-55.16-4.59-98.51-50.8-98.51-107.15,0-40.13,21.98-75.12,54.56-93.6,1.1-.62.28-2.28-.88-1.79-50.17,21.28-85.15,71.4-84.14,129.57.43,24.7,7.44,47.83,19.32,67.75-23.04.19-46.34,6.16-67.71,18.5-49.46,28.56-74.55,83.1-68,136.43.15,1.25,2,1.13,1.99-.13-.29-37.35,18.92-73.79,53.5-93.88,47.6-27.67,108.6-14.33,140.66,29.29.59.8,1.68,1.04,2.54.54Z"/>
        <path class="cls-1" d="M594.31,569.19c-32.2,18.92-73.36,20.5-108.05.61-47.77-27.39-66.72-86.9-44.96-136.48.4-.91.06-1.98-.8-2.47l-21.7-12.53c-.76-.44-1.7-.3-2.34.3-6.36,6.03-14.94,9.73-24.4,9.73s-18.04-3.7-24.4-9.73c-.64-.6-1.58-.74-2.34-.3l-21.46,12.39c-.88.51-1.21,1.6-.78,2.52,23.6,50.06,5.24,110.7-43.55,138.87-34.75,20.06-76.05,18.52-108.34-.45-1.09-.64-2.11.9-1.11,1.66,43.52,32.81,104.41,38.04,154.28,8.08,21.17-12.72,37.7-30.36,49.02-50.61,11.69,19.85,28.51,37.05,49.88,49.39,49.46,28.56,109.25,23.01,152.15-9.33,1.01-.76-.02-2.3-1.11-1.66Z"/>
      </g>
    </g>
  </g>
</svg>