<?xml version="1.0" encoding="UTF-8"?>
<svg id="Camada_2" xmlns="http://www.w3.org/2000/svg" viewBox="0 0 785.64 785.64">
  <defs>
    <style>
      .cls-1 {
        fill: #1a1a1a;
      }

      .cls-2 {
        fill: #ffe739;
      }
    </style>
  </defs>
  <g id="_Слой_1" data-name="Слой_1">
    <g id="chemical">
      <circle id="_x30_" class="cls-2" cx="392.82" cy="392.82" r="392.75"/>
      <g id="chemical_weapon">
        <path class="cls-1" d="M178.81,109.82c18.21-13.76,37.88-25.81,58.45-35.83,20.38-9.92,41.83-17.93,63.75-23.8,21.92-5.87,44.5-9.66,67.11-11.26,22.83-1.61,45.89-1.01,68.54,1.8,47.13,5.85,92.05,20.95,133.52,44.89,41.47,23.94,77.01,55.29,105.64,93.18,13.76,18.21,25.81,37.88,35.83,58.45,9.92,20.38,17.93,41.83,23.8,63.75,5.87,21.92,9.66,44.5,11.26,67.11,1.61,22.83,1.01,45.89-1.8,68.54-5.85,47.13-20.95,92.05-44.89,133.52-23.94,41.47-55.29,77.01-93.18,105.64-18.21,13.76-37.88,25.81-58.45,35.83-20.38,9.92-41.83,17.93-63.75,23.8-21.92,5.87-44.5,9.66-67.11,11.26-22.83,1.61-45.89,1.01-68.54-1.8-47.13-5.85-92.05-20.95-133.52-44.89-41.47-23.94-77.01-55.29-105.64-93.18-13.76-18.21-25.81-37.88-35.83-58.45-9.92-20.38-17.93-41.83-23.8-63.75-5.87-21.92-9.66-44.5-11.26-67.11-1.61-22.83-1.01-45.89,1.8-68.54,5.85-47.13,20.95-92.05,44.89-133.52,23.94-41.47,55.29-77.01,93.18-105.64ZM560.18,102.95C400.34,10.67,195.23,65.62,102.95,225.46c-92.28,159.84-37.32,364.95,122.51,457.23,159.84,92.28,364.95,37.32,457.23-122.51,92.28-159.84,37.32-364.95-122.51-457.23Z"/>
        <path class="cls-1" d="M617.18,448.04c-30.09-17.37-67.86-9.31-88.49,17.48l-72.48-41.85c3.3-8.03,5.14-16.82,5.14-26.04,0-34.74-25.86-63.43-59.39-67.9v-83.72c33.52-4.47,59.39-33.15,59.39-67.9,0-37.84-30.68-68.52-68.52-68.52s-68.52,30.68-68.52,68.52c0,34.74,25.86,63.43,59.39,67.9v83.72c-33.52,4.47-59.39,33.15-59.39,67.9,0,9.22,1.83,18.01,5.14,26.04l-72.48,41.85c-20.63-26.8-58.4-34.85-88.49-17.48-32.77,18.92-44,60.83-25.08,93.6,18.92,32.77,60.83,44,93.6,25.08,30.09-17.37,42-54.11,29.11-85.38l72.49-41.85c12.53,16.21,32.16,26.67,54.23,26.67s41.7-10.45,54.23-26.67l72.49,41.85c-12.89,31.26-.98,68.01,29.11,85.38,32.77,18.92,74.68,7.69,93.6-25.08,18.92-32.77,7.69-74.68-25.08-93.6Z"/>
        <path class="cls-1" d="M420.26,314.91c0,.42.27.8.67.94,19.01,6.6,35.82,19.79,46.67,38.58,10.93,18.93,13.91,40.26,9.99,60.14-.08.42.11.84.47,1.05l14.76,8.52c.57.33,1.31.02,1.48-.62,6.45-25.57,3.35-53.59-10.88-78.23-14.15-24.51-36.68-41.15-61.89-48.42-.64-.18-1.28.3-1.28.97v17.07Z"/>
        <path class="cls-1" d="M450.35,462.95c-.37-.21-.82-.17-1.14.11-15.22,13.16-35.05,21.13-56.75,21.13-21.86,0-41.82-8.08-57.08-21.42-.32-.28-.78-.33-1.15-.11l-14.76,8.52c-.57.33-.68,1.13-.2,1.59,18.92,18.38,44.73,29.69,73.19,29.69,28.3,0,53.98-11.19,72.87-29.39.48-.46.38-1.26-.2-1.59l-14.78-8.53Z"/>
        <path class="cls-1" d="M307.1,414.99c.37-.21.56-.63.48-1.05-3.79-19.76-.77-40.92,10.08-59.71,10.93-18.93,27.91-32.18,47.09-38.73.4-.14.67-.51.67-.94v-17.05c0-.66-.64-1.15-1.27-.97-25.37,7.2-48.08,23.9-62.31,48.54-14.15,24.51-17.3,52.35-10.99,77.8.16.65.9.96,1.48.62l14.78-8.53Z"/>
      </g>
    </g>
  </g>
</svg>