<?xml version="1.0" encoding="UTF-8"?>
<svg id="Camada_2" xmlns="http://www.w3.org/2000/svg" viewBox="0 0 785.51 785.51">
  <defs>
    <style>
      .cls-1 {
        fill: #1a1a1a;
      }

      .cls-2 {
        fill: #ffe739;
      }
    </style>
  </defs>
  <g id="_Слой_1" data-name="Слой_1">
    <g id="co2">
      <circle id="_x30_" class="cls-2" cx="392.75" cy="392.75" r="392.75"/>
      <g id="CO2">
        <path class="cls-1" d="M172.92,300.15h0c4.74-10.59,11.5-18.94,20.08-24.81,8.56-5.86,18.68-8.83,30.07-8.83,8.18,0,16.22,2.01,23.9,5.96,7.69,3.96,14.48,9.68,20.19,17,5.71,7.33,9.85,15.76,12.29,25.07.12.44.51.75.97.75h41.05c.3,0,.58-.13.77-.36.19-.23.27-.53.22-.82-3.28-18.06-9.65-34.17-18.91-47.9-9.28-13.75-20.99-24.53-34.82-32.04-13.84-7.51-29.19-11.32-45.65-11.32-19.87,0-37.59,4.81-52.67,14.28-15.08,9.48-26.94,23.03-35.23,40.29-8.28,17.22-12.47,37.44-12.47,60.1v83.53c0,22.65,4.2,42.87,12.47,60.1,8.3,17.26,20.15,30.79,35.23,40.19,15.08,9.41,32.8,14.18,52.67,14.18,16.33,0,31.62-3.81,45.45-11.32,13.82-7.51,25.57-18.28,34.92-32.03,9.33-13.73,15.73-29.84,19.01-47.9.05-.29-.03-.59-.22-.82-.19-.23-.47-.36-.77-.36h-41.05c-.46,0-.86.31-.97.76-2.44,10-6.58,18.75-12.29,26-5.7,7.24-12.46,12.78-20.07,16.47-7.62,3.68-15.7,5.55-24.02,5.55-11.4,0-21.52-2.94-30.08-8.73-8.57-5.8-15.33-14.14-20.07-24.8-4.76-10.7-7.18-23.24-7.18-37.28v-83.53c0-14.17,2.42-26.74,7.18-37.38Z"/>
        <path class="cls-1" d="M495.87,236.92c-15.28-9.33-33.16-14.07-53.16-14.07s-37.88,4.73-53.16,14.07c-15.28,9.34-27.27,22.72-35.63,39.77-8.34,17.01-12.57,36.99-12.57,59.37v86.25c0,22.38,4.23,42.36,12.57,59.37,8.36,17.05,20.35,30.43,35.63,39.77,15.27,9.33,33.16,14.07,53.16,14.07s37.88-4.73,53.16-14.07c15.28-9.34,27.27-22.72,35.63-39.77,8.34-17.02,12.57-36.99,12.57-59.37v-86.25c0-22.38-4.23-42.35-12.57-59.37-8.36-17.05-20.35-30.43-35.63-39.77ZM473.31,483.12c-8.77,5.52-19.06,8.32-30.6,8.32s-21.83-2.8-30.59-8.32c-8.76-5.52-15.64-13.48-20.45-23.66-4.82-10.21-7.27-22.22-7.27-35.68v-89.18c0-13.46,2.45-25.47,7.27-35.68,4.81-10.18,11.69-18.13,20.45-23.66,8.76-5.52,19.06-8.32,30.59-8.32s21.83,2.8,30.6,8.32c8.76,5.52,15.64,13.48,20.45,23.66,4.82,10.22,7.27,22.22,7.27,35.68v89.18c0,13.47-2.45,25.47-7.27,35.68-4.8,10.17-11.68,18.13-20.45,23.66Z"/>
        <path class="cls-1" d="M633.42,570.18h-50.05l38.64-50.68c3.63-4.8,6.51-9.86,8.56-15.04,2.06-5.21,3.1-10.29,3.1-15.17,0-7.46-1.58-13.93-4.68-19.24-3.12-5.33-7.73-9.45-13.69-12.24-5.92-2.76-13.13-4.16-21.44-4.16-7.38,0-14,1.47-19.67,4.36-5.69,2.9-10.39,7.17-13.97,12.68-3.56,5.49-5.96,12.19-7.11,19.91,0,.05-.01.19-.01.24,0,.55.45,1,1,1h19.98c.52,0,.94-.47.99-.98.73-5.57,2.75-9.93,6.03-12.95,3.26-3.01,7.62-4.53,12.96-4.53,5.65,0,10.04,1.39,13.06,4.13,2.99,2.71,4.5,7.31,4.5,11.78,0,3.15-.76,6.6-2.25,10.27-1.51,3.71-3.64,7.33-6.35,10.78l-48,61.78c-.14.18-.21.39-.21.61v16.18c0,.55.45,1,1,1h77.63c.55,0,1-.45,1-1v-17.73c0-.55-.45-1-1-1Z"/>
        <path class="cls-1" d="M392.75,747.47c-47.88,0-94.34-9.38-138.07-27.88-21.02-8.89-41.29-19.9-60.26-32.71-18.78-12.69-36.44-27.26-52.49-43.31-16.05-16.05-30.62-33.71-43.31-52.49-12.81-18.96-23.82-39.24-32.71-60.26-18.5-43.74-27.88-90.19-27.88-138.07s9.38-94.34,27.88-138.07c8.89-21.02,19.89-41.29,32.71-60.26,12.69-18.78,27.26-36.44,43.31-52.49,16.05-16.05,33.71-30.62,52.49-43.31,18.96-12.81,39.24-23.82,60.26-32.71,43.74-18.5,90.19-27.88,138.07-27.88s94.34,9.38,138.07,27.88c21.02,8.89,41.29,19.89,60.26,32.71,18.78,12.69,36.44,27.26,52.49,43.31,16.05,16.05,30.62,33.71,43.31,52.49,12.81,18.96,23.82,39.24,32.71,60.26,18.5,43.74,27.88,90.19,27.88,138.07s-9.38,94.34-27.88,138.07c-8.89,21.02-19.9,41.29-32.71,60.26-12.69,18.78-27.26,36.44-43.31,52.49-16.05,16.05-33.71,30.62-52.49,43.31-18.96,12.81-39.24,23.82-60.26,32.71-43.74,18.5-90.19,27.88-138.07,27.88ZM392.75,58.04c-184.56,0-334.72,150.15-334.72,334.72s150.15,334.72,334.72,334.72,334.72-150.15,334.72-334.72S577.32,58.04,392.75,58.04Z"/>
      </g>
    </g>
  </g>
</svg>