<?xml version="1.0" encoding="UTF-8"?>
<svg id="Camada_2" xmlns="http://www.w3.org/2000/svg" viewBox="0 0 785.51 785.51">
  <defs>
    <style>
      .cls-1 {
        fill: #1a1a1a;
      }

      .cls-2 {
        fill: #ffe739;
      }
    </style>
  </defs>
  <g id="_Слой_1" data-name="Слой_1">
    <g id="cross">
      <circle id="_x30_" class="cls-2" cx="392.75" cy="392.75" r="392.75"/>
      <g id="cross-2" data-name="cross">
        <path class="cls-1" d="M141.93,643.57c-33.86-33.86-60.07-73.34-77.92-117.35-8.58-21.15-15.13-43.27-19.48-65.74-4.31-22.25-6.49-45.04-6.49-67.74,0-22.7,2.18-45.49,6.49-67.74,4.35-22.47,10.9-44.58,19.48-65.74,17.85-44.01,44.06-83.49,77.92-117.35,33.86-33.86,73.34-60.07,117.35-77.92,21.15-8.58,43.27-15.13,65.74-19.48,22.25-4.31,45.04-6.49,67.74-6.49s45.49,2.18,67.74,6.49c22.47,4.35,44.58,10.9,65.74,19.48,44.01,17.85,83.49,44.06,117.35,77.92,33.86,33.86,60.07,73.34,77.92,117.35,8.58,21.15,15.13,43.27,19.48,65.74,4.31,22.25,6.49,45.04,6.49,67.74,0,22.7-2.18,45.49-6.49,67.74-4.35,22.47-10.9,44.58-19.48,65.74-17.85,44.01-44.06,83.49-77.92,117.35s-73.34,60.07-117.35,77.92c-21.15,8.58-43.27,15.13-65.74,19.48-22.25,4.31-45.04,6.49-67.74,6.49-22.7,0-45.49-2.18-67.74-6.49-22.47-4.35-44.58-10.9-65.74-19.48-44.01-17.85-83.49-44.06-117.35-77.92ZM629.43,156.07c-130.51-130.51-342.85-130.51-473.36,0-130.51,130.51-130.51,342.85,0,473.36,130.51,130.51,342.85,130.51,473.36,0,130.51-130.51,130.51-342.85,0-473.36Z"/>
        <path class="cls-1" d="M623.62,265.13l-103.24-103.24c-.78-.78-2.05-.78-2.83,0l-123.38,123.38c-.78.78-2.05.78-2.83,0l-123.38-123.38c-.78-.78-2.05-.78-2.83,0l-103.24,103.24c-.78.78-.78,2.05,0,2.83l123.38,123.38c.78.78.78,2.05,0,2.83l-123.38,123.38c-.78.78-.78,2.05,0,2.83l103.24,103.24c.78.78,2.05.78,2.83,0l123.38-123.38c.78-.78,2.05-.78,2.83,0l123.38,123.38c.78.78,2.05.78,2.83,0l103.24-103.24c.78-.78.78-2.05,0-2.83l-123.38-123.38c-.78-.78-.78-2.05,0-2.83l123.38-123.38c.78-.78.78-2.05,0-2.83Z"/>
      </g>
    </g>
  </g>
</svg>