<?xml version="1.0" encoding="UTF-8"?>
<svg id="Camada_2" xmlns="http://www.w3.org/2000/svg" viewBox="0 0 785.51 785.51">
  <defs>
    <style>
      .cls-1 {
        fill: #1a1a1a;
      }

      .cls-2 {
        fill: #ffe739;
      }
    </style>
  </defs>
  <g id="_Слой_1" data-name="Слой_1">
    <g id="death">
      <circle id="_x30_" class="cls-2" cx="392.75" cy="392.75" r="392.75"/>
      <g id="poison">
        <path class="cls-1" d="M392.75,747.47c-47.88,0-94.34-9.38-138.07-27.88-21.02-8.89-41.29-19.9-60.26-32.71-18.78-12.69-36.44-27.26-52.49-43.31-16.05-16.05-30.62-33.71-43.31-52.49-12.81-18.96-23.82-39.24-32.71-60.26-18.5-43.74-27.88-90.19-27.88-138.07s9.38-94.34,27.88-138.07c8.89-21.02,19.89-41.29,32.71-60.26,12.69-18.78,27.26-36.44,43.31-52.49,16.05-16.05,33.71-30.62,52.49-43.31,18.96-12.81,39.24-23.82,60.26-32.71,43.74-18.5,90.19-27.88,138.07-27.88s94.34,9.38,138.07,27.88c21.02,8.89,41.29,19.89,60.26,32.71,18.78,12.69,36.44,27.26,52.49,43.31,16.05,16.05,30.62,33.71,43.31,52.49,12.81,18.96,23.82,39.24,32.71,60.26,18.5,43.74,27.88,90.19,27.88,138.07s-9.38,94.34-27.88,138.07c-8.89,21.02-19.9,41.29-32.71,60.26-12.69,18.78-27.26,36.44-43.31,52.49-16.05,16.05-33.71,30.62-52.49,43.31-18.96,12.81-39.24,23.82-60.26,32.71-43.74,18.5-90.19,27.88-138.07,27.88ZM392.75,58.04c-184.56,0-334.71,150.15-334.71,334.71,0,183.67,151.04,334.72,334.72,334.72,184.56,0,334.71-150.15,334.71-334.71,0-183.67-151.04-334.72-334.72-334.72Z"/>
        <g>
          <path class="cls-1" d="M197.47,490.52c3.16,2.18,6.64,3.17,10.03,3.17h.03c10.32.96,20.8-3.45,31.23-6.44,4.42-1.27,9.14-1.11,13.46.45l73.11,26.61c.88.32,1.85.32,2.74,0l34.46-12.54c1.75-.64,1.76-3.12,0-3.76-21.83-7.95-105.44-38.38-105.44-38.38-5.78-2.08-10.24-5.99-12.11-11.83-2.06-6.43-7.9-11.58-16.05-11.95-4.61-.21-9.15,1.61-12.32,4.97-3.26,3.45-4.83,7.51-5,11.48-.14,3.4-2.71,6.26-6.09,6.65-7.13.83-13.49,6.05-15.11,14-1.37,6.71,1.43,13.68,7.07,17.56Z"/>
          <path class="cls-1" d="M590.32,590.12c2.61-3.4,4.03-7.91,3.43-13.12-.43-3.81-2.33-7.35-5.24-9.85-6.65-5.71-14.91-5.67-20.89-1.9-5.2,3.27-11.12,3.39-16.88,1.28l-104.15-37.91c-.88-.32-1.85-.32-2.74,0l-34.46,12.54c-1.75.64-1.75,3.12,0,3.76l127.03,46.24c4.32,1.59,8.03,4.49,10.61,8.31,6.07,9,11.26,19.12,19.78,25.01l.03.02c2.07,1.74,4.59,3.03,7.46,3.66,8.3,1.84,16.92-2.8,19.97-10.74,2.52-6.54.85-13.54-3.56-18.23-2.34-2.49-2.48-6.35-.4-9.06Z"/>
          <path class="cls-1" d="M579.95,453.99c-3.31-.37-5.91-3.02-5.99-6.35-.11-4.32-1.87-8.76-5.65-12.43-2.86-2.78-6.73-4.33-10.72-4.34-8.66,0-14.87,5.29-17.01,11.97-1.88,5.85-6.34,9.75-12.11,11.83l-293.65,106.88c-5.76,2.12-11.69,1.99-16.88-1.28-5.94-3.74-14.1-3.81-20.73,1.76-3.05,2.57-5.02,6.25-5.43,10.22-.54,5.24.96,9.77,3.66,13.15,2.08,2.6,1.78,6.31-.51,8.71-4.53,4.76-6.23,11.93-3.54,18.6,3.13,7.75,11.54,12.23,19.72,10.49,2.93-.62,5.51-1.93,7.62-3.7,8.53-5.89,13.72-16.01,19.79-25.02,2.57-3.82,6.29-6.72,10.61-8.31l284.21-103.44c4.33-1.56,9.04-1.72,13.46-.45,10.44,3,20.93,7.41,31.25,6.44,2.76,0,5.57-.65,8.22-2.06,7.38-3.92,10.95-12.76,8.36-20.71-2.22-6.83-8.13-11.24-14.66-11.97Z"/>
        </g>
        <path class="cls-1" d="M517.84,317.97c13.27-26.53,20.36-29.09,20.36-69.82,0-116.36-104.72-130.9-145.45-130.9s-145.45,14.54-145.45,130.9c0,40.73,7.1,43.28,20.36,69.82,5.82,11.64-8.73,29.09-8.73,43.63s23.27,34.91,32,37.82c8.73,2.91,29.09,0,34.91,5.82s-1.92,19.18,8.73,29.09c.87.81,1.67,1.54,2.46,2.2.67.56,1.07,1.38,1.07,2.25v11.18c0,1.75,1.42,3.17,3.17,3.17h8.26c1.75,0,3.17-1.42,3.17-3.17v-6.55c0-.58.47-1.03,1.05-.98.75.06,1.53.12,2.35.17.52.03.95.46.95.98v7.84c0,1.75,1.42,3.17,3.17,3.17h8.26c1.75,0,3.17-1.42,3.17-3.17v-7.41c0-.55.43-.99.98-.99.77,0,1.56.01,2.37.01.54,0,1,.44,1,.99v8.85c0,1.75,1.42,3.17,3.17,3.17h8.26c1.75,0,3.17-1.42,3.17-3.17v-9.23c0-.32.26-.58.58-.58h3.19c.32,0,.58.26.58.58v9.23c0,1.75,1.42,3.17,3.17,3.17h8.26c1.75,0,3.17-1.42,3.17-3.17v-8.85c0-.54.45-.99,1-.99.81,0,1.6,0,2.37-.01.55,0,.98.44.98.99v7.41c0,1.75,1.42,3.17,3.17,3.17h8.26c1.75,0,3.17-1.42,3.17-3.17v-7.84c0-.52.43-.95.95-.98.82-.05,1.61-.1,2.35-.17.58-.05,1.05.4,1.05.98v6.55c0,1.75,1.42,3.17,3.17,3.17h8.26c1.75,0,3.17-1.42,3.17-3.17v-11.18c0-.87.4-1.69,1.07-2.25.79-.66,1.59-1.39,2.46-2.2,10.65-9.91,2.91-23.27,8.73-29.09s26.18-2.91,34.91-5.82c8.73-2.91,32-23.27,32-37.82s-14.54-32-8.73-43.63ZM333.99,352.87c-5.25,3.65-11.91,4.61-17.97,2.59l-1.3-.43c-5.1-1.7-9.31-5.35-11.71-10.16l-10.29-20.58c-3.03-6.06-2.83-13.23.53-19.11l2.98-5.22c2.71-4.74,7.03-9.33,12.48-9.55,12.58-.52,38.05,3.71,49.63,8.67,5.91,2.53,8.23,9.87,8.23,16.3v4.25c0,6.63-3.25,12.85-8.69,16.63l-23.89,16.61ZM391.31,397.95l-8.91,5.89c-3.67,1.91-8.18.95-10.76-2.28l-4.44-5.55c-2.06-2.57-2.48-6.09-1.09-9.08,0,0,14.77-23.56,19.59-31.69,2.97-5.01,5.23-7.77,7.04-7.77s4.07,2.76,7.04,7.77c4.82,8.13,19.59,31.69,19.59,31.69,1.39,2.99.97,6.5-1.09,9.08l-4.44,5.55c-2.58,3.23-7.09,4.18-10.76,2.28l-8.91-5.89c-.87-.58-2-.58-2.88,0ZM492.79,324.29l-10.29,20.57c-2.4,4.81-6.62,8.46-11.71,10.16l-1.3.43c-6.06,2.02-12.72,1.06-17.96-2.58l-23.9-16.62c-5.45-3.79-8.69-10-8.69-16.63v-4.25c0-6.43,2.32-13.77,8.23-16.3,11.58-4.96,37.07-9.66,49.63-8.67,5.44.43,9.78,4.82,12.48,9.55l2.98,5.22c3.36,5.88,3.56,13.05.53,19.11Z"/>
      </g>
    </g>
  </g>
</svg>