<?xml version="1.0" encoding="UTF-8"?>
<svg id="Camada_2" xmlns="http://www.w3.org/2000/svg" viewBox="0 0 785.51 785.51">
  <defs>
    <style>
      .cls-1 {
        fill: #1a1a1a;
      }

      .cls-2 {
        fill: #ffe739;
      }
    </style>
  </defs>
  <g id="_Слой_1" data-name="Слой_1">
    <g id="electrical">
      <circle id="_x30_" class="cls-2" cx="392.75" cy="392.75" r="392.75"/>
      <g id="electricity">
        <path class="cls-1" d="M392.75,747.47c-47.88,0-94.34-9.38-138.07-27.88-21.02-8.89-41.29-19.9-60.26-32.71-18.78-12.69-36.44-27.26-52.49-43.31-16.05-16.05-30.62-33.71-43.31-52.49-12.81-18.96-23.82-39.24-32.71-60.26-18.5-43.74-27.88-90.19-27.88-138.07s9.38-94.34,27.88-138.07c8.89-21.02,19.89-41.29,32.71-60.26,12.69-18.78,27.26-36.44,43.31-52.49,16.05-16.05,33.71-30.62,52.49-43.31,18.96-12.81,39.24-23.82,60.26-32.71,43.74-18.5,90.19-27.88,138.07-27.88s94.34,9.38,138.07,27.88c21.02,8.89,41.29,19.89,60.26,32.71,18.78,12.69,36.44,27.26,52.49,43.31,16.05,16.05,30.62,33.71,43.31,52.49,12.81,18.96,23.82,39.24,32.71,60.26,18.5,43.74,27.88,90.19,27.88,138.07s-9.38,94.34-27.88,138.07c-8.89,21.02-19.9,41.29-32.71,60.26-12.69,18.78-27.26,36.44-43.31,52.49-16.05,16.05-33.71,30.62-52.49,43.31-18.96,12.81-39.24,23.82-60.26,32.71-43.74,18.5-90.19,27.88-138.07,27.88ZM392.75,58.04c-184.56,0-334.72,150.15-334.72,334.72s150.15,334.72,334.72,334.72,334.72-150.15,334.72-334.72S577.32,58.04,392.75,58.04Z"/>
        <path class="cls-1" d="M507,303.19l-100.89.57c-1.46,0-2.44-1.5-1.83-2.83l80.75-177.1c.6-1.33-.37-2.83-1.83-2.83l-92.67.28c-.81,0-1.54.5-1.85,1.25l-99.48,246.09c-.53,1.31.44,2.75,1.85,2.75l80.45.05c1.36,0,2.32,1.33,1.9,2.63l-54.87,166.42c-.47,1.44-2.31,1.85-3.35.75l-32.43-34.15c-1.3-1.37-3.6-.34-3.44,1.54l12.59,153.38c.14,1.72,2.24,2.46,3.44,1.22l105.66-110.28c1.31-1.36.17-3.61-1.7-3.37l-46.27,6.03c-1.69.22-2.86-1.63-1.94-3.06l157.62-246.26c.85-1.34-.11-3.09-1.7-3.08Z"/>
      </g>
    </g>
  </g>
</svg>