<?xml version="1.0" encoding="UTF-8"?>
<svg id="Camada_2" xmlns="http://www.w3.org/2000/svg" viewBox="0 0 785.51 785.51">
  <defs>
    <style>
      .cls-1 {
        fill: #1a1a1a;
      }

      .cls-2 {
        fill: #ffe739;
      }
    </style>
  </defs>
  <g id="_Слой_1" data-name="Слой_1">
    <g id="explosion">
      <circle id="_x30_" class="cls-2" cx="392.75" cy="392.75" r="392.75"/>
      <g id="bomb">
        <path class="cls-1" d="M640.31,240.17c-1.83-1.75-4.61-2.05-6.77-.72l-37.97,23.3-14.17-23.62c-.94-1.56-2.53-2.7-4.35-2.86-2.72-.25-5.13,1.45-5.88,3.95l-7.96,26.66-41.89-12.49c-2.65-.79-5.52.48-6.69,3.08-.94,2.1-.39,4.58,1.19,6.25l33.83,35.79-14.12,25.44c-.89,1.59-1.07,3.54-.3,5.19,1.14,2.48,3.82,3.72,6.37,3.11l19.95-4.75c-2.97,7.88-6.99,12.61-12.53,14.76-8.69,3.37-21.86.29-38.09-8.92-28.59-16.22-47.54-13.35-58.4-8.09-8.79,4.26-14.57,11.12-17.93,17.85l-30.08-30.08c-.78-.78-2.05-.78-2.83,0l-20.94,20.94c-61.45-30.4-137.95-20.02-189.12,31.14-64.13,64.13-64.15,168.27-.04,232.41,64.19,64.22,168.28,64.23,232.48.03,51.17-51.17,61.55-127.67,31.14-189.12l20.94-20.94c.78-.78.78-2.05,0-2.83l-30.82-30.82c1.47-5.72,5.91-12.48,13.27-16.04,11.27-5.46,26.99-2.81,45.45,7.67,20.28,11.51,37.11,14.8,50.01,9.79,11.33-4.4,16.91-13.97,19.67-20.57l15,33.17c.91,2.02,2.91,3.28,5.08,3.28.29,0,.58-.02.86-.07,2.48-.39,4.39-2.38,4.67-4.87l5.16-44.97,28.29-.48c1.82-.03,3.6-.84,4.65-2.33,1.58-2.23,1.31-5.17-.48-7.07l-20.13-21.3,24.51-44.15c1.23-2.21.81-4.98-1.02-6.73ZM259.45,365.51c-30.49,12.66-55.53,37.44-68.44,68.44-2.04,4.89-6.56,6.18-10.92,4.54-4.11-1.54-6.4-6.65-4.52-10.95,7.22-17.41,17.67-33.03,31.06-46.42,13.39-13.39,29.01-23.84,46.42-31.06,4.12-1.81,9.29.34,10.92,4.52,2.29,4.74-.18,9.12-4.52,10.92ZM605.1,289.21c-1.18,2.12-.85,4.77.82,6.53l14.25,15.08-20.75.35c-2.8.05-5.12,2.16-5.44,4.94l-3.42,29.78-12.7-28.08c-.92-2.03-2.93-3.28-5.08-3.28-.43,0-.86.05-1.29.15l-20.19,4.8,10.07-18.14c1.18-2.12.85-4.77-.82-6.53l-22.5-23.81,27.3,8.14c2.95.88,6.05-.8,6.93-3.75l5.94-19.88,10.66,17.77c.3.5.66.97,1.11,1.35,1.95,1.67,4.6,1.79,6.6.56l24.68-15.15-16.19,29.16Z"/>
        <path class="cls-1" d="M392.75,747.47c-47.88,0-94.34-9.38-138.07-27.88-21.02-8.89-41.29-19.9-60.26-32.71-18.78-12.69-36.44-27.26-52.49-43.31-16.05-16.05-30.62-33.71-43.31-52.49-12.81-18.96-23.82-39.24-32.71-60.26-18.5-43.74-27.88-90.19-27.88-138.07s9.38-94.34,27.88-138.07c8.89-21.02,19.89-41.29,32.71-60.26,12.69-18.78,27.26-36.44,43.31-52.49,16.05-16.05,33.71-30.62,52.49-43.31,18.96-12.81,39.24-23.82,60.26-32.71,43.74-18.5,90.19-27.88,138.07-27.88s94.34,9.38,138.07,27.88c21.02,8.89,41.29,19.89,60.26,32.71,18.78,12.69,36.44,27.26,52.49,43.31,16.05,16.05,30.62,33.71,43.31,52.49,12.81,18.96,23.82,39.24,32.71,60.26,18.5,43.74,27.88,90.19,27.88,138.07s-9.38,94.34-27.88,138.07c-8.89,21.02-19.9,41.29-32.71,60.26-12.69,18.78-27.26,36.44-43.31,52.49-16.05,16.05-33.71,30.62-52.49,43.31-18.96,12.81-39.24,23.82-60.26,32.71-43.74,18.5-90.19,27.88-138.07,27.88ZM392.75,58.04c-184.56,0-334.72,150.15-334.72,334.72s150.15,334.72,334.72,334.72,334.72-150.15,334.72-334.72S577.32,58.04,392.75,58.04Z"/>
      </g>
    </g>
  </g>
</svg>