<?xml version="1.0" encoding="UTF-8"?>
<svg id="Camada_2" xmlns="http://www.w3.org/2000/svg" viewBox="0 0 785.51 785.51">
  <defs>
    <style>
      .cls-1 {
        fill: #1a1a1a;
      }

      .cls-2 {
        fill: #ffe739;
      }
    </style>
  </defs>
  <g id="_Слой_1" data-name="Слой_1">
    <g id="fire">
      <circle id="_x30_" class="cls-2" cx="392.75" cy="392.75" r="392.75"/>
      <g id="flammable">
        <path class="cls-1" d="M392.75,747.47c-47.88,0-94.34-9.38-138.07-27.88-21.02-8.89-41.29-19.9-60.26-32.71-18.78-12.69-36.44-27.26-52.49-43.31-16.05-16.05-30.62-33.71-43.31-52.49-12.81-18.96-23.82-39.24-32.71-60.26-18.5-43.74-27.88-90.19-27.88-138.07s9.38-94.34,27.88-138.07c8.89-21.02,19.89-41.29,32.71-60.26,12.69-18.78,27.26-36.44,43.31-52.49,16.05-16.05,33.71-30.62,52.49-43.31,18.96-12.81,39.24-23.82,60.26-32.71,43.74-18.5,90.19-27.88,138.07-27.88s94.34,9.38,138.07,27.88c21.02,8.89,41.29,19.89,60.26,32.71,18.78,12.69,36.44,27.26,52.49,43.31,16.05,16.05,30.62,33.71,43.31,52.49,12.81,18.96,23.82,39.24,32.71,60.26,18.5,43.74,27.88,90.19,27.88,138.07s-9.38,94.34-27.88,138.07c-8.89,21.02-19.9,41.29-32.71,60.26-12.69,18.78-27.26,36.44-43.31,52.49-16.05,16.05-33.71,30.62-52.49,43.31-18.96,12.81-39.24,23.82-60.26,32.71-43.74,18.5-90.19,27.88-138.07,27.88ZM392.75,58.04c-184.56,0-334.72,150.15-334.72,334.72s150.15,334.72,334.72,334.72,334.72-150.15,334.72-334.72S577.32,58.04,392.75,58.04Z"/>
        <path class="cls-1" d="M486.26,400.05c22.79-34.28,60.96-165.93-109.77-281.25-.84-.57-1.9.35-1.45,1.27,44.69,91.8-67.97,157.46-113.91,233.38-33.55,55.44-20.52,104.75-11.53,126.57.4.96-.76,1.82-1.56,1.15-13.48-11.2-29.09-32.27-31.3-68.93-.07-1.08-1.56-1.32-1.94-.3-36.36,97.83,14.92,217.89,100.24,253.78,1.03.43,1.89-.92,1.06-1.66-21.11-18.97-37.9-76.57,2.41-116.04.59-.58,1.61-.21,1.69.61,4.1,39.86,32.76,49.17,45.15,48.12.83-.07,1.2-1.07.63-1.68-45.82-49.66-37.66-111.24-23.21-145.25,21.58-50.77,58.84-73.28,70.52-79.32.93-.48,1.87.6,1.27,1.46-26.59,38.26-24.61,104.66,21.52,140.3,34.96,27.01,58.59,52.59,60.63,91.98,1.22,23.6-6.89,46.02-21.1,58.09-.9.76.03,2.16,1.09,1.65,71.41-34.65,166.47-168.02,54.09-331.34-.53-.77-1.73-.46-1.82.47-3.33,34.42-29.35,58.8-41.25,68.27-.89.71-2.08-.38-1.46-1.33Z"/>
      </g>
    </g>
  </g>
</svg>