<?xml version="1.0" encoding="UTF-8"?>
<svg id="Camada_2" xmlns="http://www.w3.org/2000/svg" viewBox="0 0 785.51 785.51">
  <defs>
    <style>
      .cls-1 {
        fill: #1a1a1a;
      }

      .cls-2 {
        fill: #ffe739;
      }
    </style>
  </defs>
  <g id="_Слой_1" data-name="Слой_1">
    <g id="frost">
      <circle id="_x30_" class="cls-2" cx="392.75" cy="392.75" r="392.75"/>
      <g id="frost-2" data-name="frost">
        <path class="cls-1" d="M392.75,747.47c-47.88,0-94.34-9.38-138.07-27.88-21.02-8.89-41.29-19.9-60.26-32.71-18.78-12.69-36.44-27.26-52.49-43.31-16.05-16.05-30.62-33.71-43.31-52.49-12.81-18.96-23.82-39.24-32.71-60.26-18.5-43.74-27.88-90.19-27.88-138.07s9.38-94.34,27.88-138.07c8.89-21.02,19.89-41.29,32.71-60.26,12.69-18.78,27.26-36.44,43.31-52.49,16.05-16.05,33.71-30.62,52.49-43.31,18.96-12.81,39.24-23.82,60.26-32.71,43.74-18.5,90.19-27.88,138.07-27.88s94.34,9.38,138.07,27.88c21.02,8.89,41.29,19.89,60.26,32.71,18.78,12.69,36.44,27.26,52.49,43.31,16.05,16.05,30.62,33.71,43.31,52.49,12.81,18.96,23.82,39.24,32.71,60.26,18.5,43.74,27.88,90.19,27.88,138.07s-9.38,94.34-27.88,138.07c-8.89,21.02-19.9,41.29-32.71,60.26-12.69,18.78-27.26,36.44-43.31,52.49-16.05,16.05-33.71,30.62-52.49,43.31-18.96,12.81-39.24,23.82-60.26,32.71-43.74,18.5-90.19,27.88-138.07,27.88ZM392.75,58.04c-184.56,0-334.72,150.15-334.72,334.72s150.15,334.72,334.72,334.72,334.72-150.15,334.72-334.72S577.32,58.04,392.75,58.04Z"/>
        <path class="cls-1" d="M627.21,442.5l-65.02,37.39-31.13-17.9,56.57-32.54c4.37-2.51,5.88-8.11,3.36-12.48-1.22-2.12-3.19-3.63-5.54-4.26-2.36-.64-4.82-.32-6.94.9l-65.79,37.84-31.21-17.95,56.83-32.69c2.8-1.61,4.5-4.52,4.55-7.81,0-.02,0-.05,0-.08.12-3.41-1.61-6.56-4.55-8.25l-56.73-32.62,31.09-18.02,65.82,37.85c4.37,2.51,9.96,1,12.48-3.37,2.51-4.37,1-9.96-3.37-12.48l-56.67-32.58,31-17.97,65.25,37.52c4.37,2.51,9.96,1,12.48-3.37,2.51-4.37,1-9.96-3.37-12.48l-56.1-32.26,45.34-26.29c4.35-2.52,5.84-8.12,3.32-12.49-1.22-2.11-3.2-3.62-5.56-4.25-2.36-.63-4.82-.3-6.93.92l-45.17,26.19.11-64.37c0-5.04-4.08-9.14-9.14-9.15-2.44,0-4.73.95-6.45,2.67-1.73,1.72-2.68,4.02-2.69,6.46l-.13,75.01-31.07,18.01.11-65.26c0-5.04-4.09-9.14-9.14-9.15-2.43,0-4.72.95-6.45,2.67-1.73,1.72-2.68,4.02-2.69,6.46l-.13,75.89-31.15,18.06.11-65.56c0-3.23-1.67-6.16-4.46-7.83-.03-.02-.06-.04-.1-.06-2.89-1.81-6.49-1.88-9.42-.19l-56.61,32.82-.06-35.93,65.68-38.08c4.36-2.53,5.85-8.13,3.32-12.49-2.53-4.36-8.13-5.85-12.49-3.32l-56.55,32.78-.06-35.84,65.11-37.75c4.36-2.53,5.85-8.13,3.32-12.49-2.52-4.36-8.13-5.85-12.49-3.33l-55.98,32.45-.09-52.41c0-5.03-4.11-9.12-9.15-9.12-2.44,0-4.73.96-6.46,2.69-1.72,1.73-2.67,4.03-2.67,6.46l.09,52.21-55.69-32.28c-4.36-2.52-9.96-1.03-12.49,3.32-1.22,2.11-1.55,4.57-.92,6.93.63,2.36,2.14,4.33,4.25,5.56l64.89,37.61.06,35.91-56.46-32.73c-4.36-2.52-9.96-1.03-12.49,3.33-1.22,2.11-1.55,4.57-.92,6.93.63,2.36,2.14,4.33,4.25,5.56l65.66,38.06.06,36-56.72-32.88c-2.79-1.62-6.16-1.64-9.02-.05-.03.02-.06.03-.09.05-3.01,1.6-4.87,4.68-4.87,8.06l.12,65.44-31.15-17.91-.13-75.92c-.01-5.03-4.11-9.12-9.16-9.12-5.04,0-9.13,4.12-9.12,9.16l.11,65.37-31.07-17.86-.13-75.26c0-5.03-4.11-9.12-9.15-9.12-5.04,0-9.13,4.11-9.12,9.16l.11,64.71-45.44-26.12c-4.36-2.51-9.96-1-12.48,3.37-1.22,2.12-1.54,4.58-.9,6.94.64,2.36,2.15,4.33,4.27,5.54l45.26,26.03-55.8,32.09c-4.36,2.51-5.87,8.11-3.37,12.48,1.22,2.12,3.19,3.63,5.54,4.27,2.35.64,4.82.32,6.94-.9l65.02-37.39,31.13,17.9-56.57,32.54c-4.37,2.51-5.88,8.11-3.36,12.48,1.22,2.12,3.18,3.63,5.54,4.27,2.36.64,4.82.32,6.94-.9l65.79-37.84,31.21,17.95-56.84,32.69c-2.8,1.61-4.5,4.52-4.55,7.81,0,.03,0,.05,0,.08-.12,3.41,1.61,6.56,4.55,8.25l56.73,32.62-31.09,18.02-65.82-37.84c-4.37-2.51-9.96-1-12.48,3.37-2.51,4.37-1,9.96,3.37,12.48l56.67,32.59-31,17.97-65.25-37.52c-4.37-2.51-9.97-1-12.48,3.37-2.51,4.37-1,9.96,3.37,12.48l56.1,32.26-45.34,26.29c-4.35,2.52-5.84,8.12-3.32,12.49,1.22,2.11,3.2,3.62,5.56,4.25,2.36.63,4.82.29,6.93-.93l45.17-26.19-.11,64.37c0,5.03,4.08,9.14,9.14,9.15,5.03,0,9.13-4.09,9.14-9.12l.13-75.01,31.07-18.01-.11,65.26c0,5.04,4.09,9.14,9.14,9.15,2.43,0,4.72-.95,6.45-2.67,1.73-1.72,2.68-4.02,2.69-6.46l.13-75.89,31.15-18.06-.11,65.56c0,3.23,1.66,6.16,4.43,7.81.04.03.09.05.14.08,2.89,1.81,6.48,1.88,9.42.18l56.62-32.82.06,35.93-65.68,38.08c-4.36,2.53-5.85,8.13-3.32,12.49,2.52,4.36,8.13,5.85,12.49,3.33l56.55-32.78.06,35.84-65.12,37.75c-4.36,2.53-5.85,8.13-3.32,12.49,2.53,4.36,8.13,5.85,12.49,3.32l55.99-32.45.09,52.41c0,5.03,4.11,9.12,9.15,9.12,5.04,0,9.13-4.12,9.12-9.16l-.09-52.21,55.69,32.28c4.36,2.52,9.96,1.03,12.49-3.32,2.53-4.36,1.03-9.96-3.33-12.49l-64.9-37.61-.06-35.91,56.46,32.73c4.36,2.52,9.96,1.03,12.49-3.33,1.22-2.11,1.55-4.58.92-6.93-.63-2.36-2.14-4.33-4.25-5.56l-65.66-38.06-.06-36.01,56.72,32.88c2.79,1.62,6.17,1.64,9.02.05.02-.01.05-.03.08-.05,3.02-1.6,4.89-4.68,4.88-8.07l-.12-65.44,31.15,17.91.13,75.92c.01,5.03,4.11,9.12,9.15,9.12,5.04,0,9.13-4.11,9.12-9.16l-.12-65.37,31.07,17.86.13,75.26c.01,5.03,4.11,9.12,9.16,9.12,5.04,0,9.13-4.11,9.12-9.16l-.11-64.71,45.44,26.12c4.36,2.51,9.96,1,12.48-3.37,1.22-2.12,1.54-4.58.9-6.93-.63-2.36-2.15-4.32-4.27-5.54l-45.26-26.03,55.8-32.09c4.36-2.51,5.87-8.11,3.37-12.48-2.51-4.37-8.11-5.88-12.48-3.37ZM515.72,392.75l-52.54,30.21-52.15-30.11,52.33-30.21,52.36,30.11ZM401.98,376.98v-60.42l52.25-30.29-.1,60.6-52.15,30.11ZM454.24,499.24l-52.43-30.39v-60.22l52.33,30.21.11,60.4ZM331.27,286.26l52.43,30.39v60.22l-52.33-30.21-.11-60.4ZM383.53,408.53v60.42l-52.26,30.29.1-60.6,52.15-30.11ZM374.48,392.65l-52.33,30.21-52.36-30.11,52.54-30.21,52.15,30.11Z"/>
      </g>
    </g>
  </g>
</svg>