<?xml version="1.0" encoding="UTF-8"?>
<svg id="Camada_2" xmlns="http://www.w3.org/2000/svg" viewBox="0 0 785.51 785.51">
  <defs>
    <style>
      .cls-1 {
        fill: #1a1a1a;
      }

      .cls-2 {
        fill: #ffe739;
      }
    </style>
  </defs>
  <g id="_Слой_1" data-name="Слой_1">
    <g id="heat">
      <circle id="_x30_" class="cls-2" cx="392.75" cy="392.75" r="392.75"/>
      <g id="heat-2" data-name="heat">
        <path class="cls-1" d="M392.75,747.47c-47.88,0-94.34-9.38-138.07-27.88-21.02-8.89-41.29-19.9-60.26-32.71-18.78-12.69-36.44-27.26-52.49-43.31-16.05-16.05-30.62-33.71-43.31-52.49-12.81-18.96-23.82-39.24-32.71-60.26-18.5-43.74-27.88-90.19-27.88-138.07s9.38-94.34,27.88-138.07c8.89-21.02,19.89-41.29,32.71-60.26,12.69-18.78,27.26-36.44,43.31-52.49,16.05-16.05,33.71-30.62,52.49-43.31,18.96-12.81,39.24-23.82,60.26-32.71,43.74-18.5,90.19-27.88,138.07-27.88s94.34,9.38,138.07,27.88c21.02,8.89,41.29,19.89,60.26,32.71,18.78,12.69,36.44,27.26,52.49,43.31,16.05,16.05,30.62,33.71,43.31,52.49,12.81,18.96,23.82,39.24,32.71,60.26,18.5,43.74,27.88,90.19,27.88,138.07s-9.38,94.34-27.88,138.07c-8.89,21.02-19.9,41.29-32.71,60.26-12.69,18.78-27.26,36.44-43.31,52.49-16.05,16.05-33.71,30.62-52.49,43.31-18.96,12.81-39.24,23.82-60.26,32.71-43.74,18.5-90.19,27.88-138.07,27.88ZM392.75,58.04c-184.56,0-334.72,150.15-334.72,334.72s150.15,334.72,334.72,334.72,334.72-150.15,334.72-334.72S577.32,58.04,392.75,58.04Z"/>
        <rect class="cls-1" x="174.79" y="561.28" width="435.92" height="47.8" rx="2" ry="2"/>
        <path class="cls-1" d="M398,519.22c-3.08,0-6.19-.95-8.86-2.92-6.64-4.9-8.06-14.26-3.16-20.9,32.91-44.63,29.85-90.47-10.25-153.28-20.14-31.54-30.09-63.08-29.59-93.74.43-26.7,8.68-52.06,24.5-75.39,4.63-6.83,13.93-8.61,20.76-3.98,6.83,4.63,8.61,13.93,3.98,20.76-19.14,28.22-33.71,74.76,5.55,136.26,29.3,45.9,62.12,115.23,9.11,187.11-2.93,3.97-7.46,6.08-12.04,6.08Z"/>
        <path class="cls-1" d="M505.51,519.22c-3.08,0-6.19-.95-8.86-2.92-6.64-4.9-8.06-14.26-3.16-20.9,32.91-44.63,29.85-90.47-10.25-153.28-20.14-31.54-30.09-63.08-29.59-93.74.43-26.7,8.68-52.06,24.5-75.39,4.63-6.83,13.93-8.61,20.76-3.98,6.83,4.63,8.61,13.93,3.98,20.76-19.14,28.22-33.71,74.76,5.55,136.26,29.3,45.9,62.12,115.23,9.11,187.11-2.93,3.97-7.46,6.08-12.04,6.08Z"/>
        <path class="cls-1" d="M290.48,519.22c-3.08,0-6.19-.95-8.86-2.92-6.64-4.9-8.06-14.26-3.16-20.9,32.91-44.63,29.85-90.47-10.25-153.28-20.14-31.54-30.09-63.08-29.59-93.74.43-26.7,8.68-52.06,24.5-75.39,4.63-6.83,13.93-8.61,20.76-3.98,6.83,4.63,8.61,13.93,3.98,20.76-19.14,28.22-33.71,74.76,5.55,136.26,29.3,45.9,62.12,115.23,9.11,187.11-2.93,3.97-7.46,6.08-12.04,6.08Z"/>
      </g>
    </g>
  </g>
</svg>