<?xml version="1.0" encoding="UTF-8"?>
<svg id="Camada_2" xmlns="http://www.w3.org/2000/svg" viewBox="0 0 785.51 785.51">
  <defs>
    <style>
      .cls-1 {
        fill: #1a1a1a;
      }

      .cls-2 {
        fill: #ffe739;
      }
    </style>
  </defs>
  <g id="_Слой_1" data-name="Слой_1">
    <g id="magnetical">
      <circle id="_x30_" class="cls-2" cx="392.75" cy="392.75" r="392.75"/>
      <g id="magnet">
        <path class="cls-1" d="M564.01,238.98c-26.21-65.53-82.23-97.39-171.26-97.4-89.03,0-145.05,31.86-171.26,97.4-14.96,37.4-7.42,100.4,1.58,161.71,15.63,106.42,35.96,226.2,38.58,241.58.16.96,1,1.66,1.97,1.66h84.04c1.25,0,2.19-1.13,1.97-2.35-3.77-20.57-31.17-170.5-41.28-237.24-16.64-109.73-6.91-137.81-3.53-143.8,19.6-34.76,63.51-39.95,87.94-39.95,24.43,0,68.34,5.19,87.94,39.95,3.37,5.99,13.11,34.07-3.53,143.8-10.11,66.74-37.51,216.68-41.28,237.24-.23,1.23.72,2.35,1.97,2.35h84.04c.97,0,1.81-.69,1.97-1.66,2.62-15.38,22.95-135.15,38.58-241.58,9-61.31,16.54-124.31,1.58-161.71ZM325.23,570.07c4.75,26.48,8.77,48.52,10.91,60.21.23,1.23-.72,2.36-1.97,2.36h-61.13c-.98,0-1.81-.7-1.97-1.67-1.71-10.16-5.36-31.83-10-60.23-.2-1.22.74-2.33,1.97-2.33h60.21c.97,0,1.8.7,1.97,1.65ZM512.45,632.64h-61.13c-1.25,0-2.19-1.13-1.97-2.36,2.14-11.69,6.16-33.73,10.91-60.21.17-.95,1-1.65,1.97-1.65h60.21c1.23,0,2.17,1.11,1.97,2.33-4.64,28.4-8.29,50.06-10,60.23-.16.96-1,1.67-1.97,1.67Z"/>
        <path class="cls-1" d="M392.75,747.47c-47.88,0-94.34-9.38-138.07-27.88-21.02-8.89-41.29-19.9-60.26-32.71-18.78-12.69-36.44-27.26-52.49-43.31-16.05-16.05-30.62-33.71-43.31-52.49-12.81-18.96-23.82-39.24-32.71-60.26-18.5-43.74-27.88-90.19-27.88-138.07s9.38-94.34,27.88-138.07c8.89-21.02,19.89-41.29,32.71-60.26,12.69-18.78,27.26-36.44,43.31-52.49,16.05-16.05,33.71-30.62,52.49-43.31,18.96-12.81,39.24-23.82,60.26-32.71,43.74-18.5,90.19-27.88,138.07-27.88s94.34,9.38,138.07,27.88c21.02,8.89,41.29,19.89,60.26,32.71,18.78,12.69,36.44,27.26,52.49,43.31,16.05,16.05,30.62,33.71,43.31,52.49,12.81,18.96,23.82,39.24,32.71,60.26,18.5,43.74,27.88,90.19,27.88,138.07s-9.38,94.34-27.88,138.07c-8.89,21.02-19.9,41.29-32.71,60.26-12.69,18.78-27.26,36.44-43.31,52.49-16.05,16.05-33.71,30.62-52.49,43.31-18.96,12.81-39.24,23.82-60.26,32.71-43.74,18.5-90.19,27.88-138.07,27.88ZM392.75,58.04c-184.56,0-334.72,150.15-334.72,334.72s150.15,334.72,334.72,334.72,334.72-150.15,334.72-334.72S577.32,58.04,392.75,58.04Z"/>
      </g>
    </g>
  </g>
</svg>