<?xml version="1.0" encoding="UTF-8"?>
<svg id="Camada_2" xmlns="http://www.w3.org/2000/svg" viewBox="0 0 785.51 785.51">
  <defs>
    <style>
      .cls-1 {
        fill: #1a1a1a;
      }

      .cls-2 {
        fill: #ffe739;
      }
    </style>
  </defs>
  <g id="_Слой_1" data-name="Слой_1">
    <g id="radio">
      <circle id="_x30_" class="cls-2" cx="392.75" cy="392.75" r="392.75"/>
      <g id="emission">
        <circle class="cls-1" cx="392.75" cy="303.29" r="25.94"/>
        <path class="cls-1" d="M443.35,366.79c-3.44,0-6.68-1.34-9.11-3.78-2.44-2.43-3.78-5.67-3.78-9.11s1.34-6.68,3.78-9.11c11.08-11.08,17.18-25.82,17.18-41.49s-6.1-30.41-17.18-41.49c-2.44-2.43-3.78-5.67-3.78-9.11s1.34-6.68,3.78-9.11c2.43-2.43,5.67-3.78,9.11-3.78s6.68,1.34,9.11,3.78c7.75,7.75,13.84,16.78,18.09,26.84,4.41,10.42,6.64,21.48,6.64,32.88s-2.23,22.46-6.64,32.88c-4.25,10.06-10.34,19.09-18.09,26.84-2.43,2.43-5.67,3.78-9.11,3.78Z"/>
        <path class="cls-1" d="M487.63,411.06c-3.44,0-6.68-1.34-9.11-3.78-5.03-5.03-5.03-13.2,0-18.23,22.91-22.91,35.52-53.37,35.52-85.76s-12.62-62.86-35.52-85.76c-5.03-5.03-5.03-13.2,0-18.23,2.43-2.43,5.67-3.78,9.11-3.78s6.68,1.34,9.12,3.78c13.5,13.5,24.1,29.23,31.51,46.74,7.67,18.14,11.56,37.4,11.56,57.25s-3.89,39.11-11.56,57.25c-7.41,17.52-18.01,33.24-31.51,46.74-2.44,2.43-5.67,3.78-9.12,3.78Z"/>
        <path class="cls-1" d="M531.91,455.34c-3.44,0-6.68-1.34-9.11-3.78-5.01-5.01-5.03-13.17-.04-18.2,34.03-32.68,53.55-80.08,53.55-130.07,0-49.99-19.52-97.4-53.55-130.07-4.99-5.03-4.98-13.18.04-18.2,2.43-2.43,5.67-3.78,9.11-3.78s6.68,1.34,9.12,3.78c9.49,9.49,18.1,19.92,25.6,31.02,23.51,34.76,35.9,75.3,35.82,117.24.08,41.96-12.31,82.5-35.82,117.25-7.5,11.1-16.11,21.54-25.6,31.03-2.43,2.44-5.67,3.78-9.12,3.78Z"/>
        <path class="cls-1" d="M342.15,366.79c-3.44,0-6.68-1.34-9.11-3.78-7.75-7.75-13.84-16.78-18.09-26.84-4.41-10.42-6.64-21.48-6.64-32.88s2.23-22.46,6.64-32.88c4.25-10.06,10.34-19.09,18.09-26.84,2.43-2.43,5.67-3.78,9.11-3.78s6.68,1.34,9.11,3.78c5.03,5.03,5.03,13.2,0,18.23-11.08,11.08-17.18,25.82-17.18,41.49s6.1,30.41,17.18,41.49c5.03,5.03,5.03,13.2,0,18.23-2.43,2.43-5.67,3.78-9.11,3.78Z"/>
        <path class="cls-1" d="M297.87,411.06c-3.44,0-6.68-1.34-9.11-3.78-13.5-13.5-24.1-29.23-31.51-46.74-7.67-18.14-11.56-37.4-11.56-57.25s3.89-39.11,11.56-57.25c7.41-17.51,18.01-33.24,31.51-46.74,2.43-2.43,5.67-3.78,9.11-3.78s6.68,1.34,9.11,3.78c5.03,5.03,5.03,13.2,0,18.23-22.91,22.91-35.52,53.37-35.52,85.76s12.62,62.86,35.52,85.76c5.03,5.03,5.03,13.2,0,18.23-2.43,2.43-5.67,3.78-9.11,3.78Z"/>
        <path class="cls-1" d="M253.6,455.34c-3.44,0-6.68-1.34-9.11-3.78-9.49-9.49-18.1-19.92-25.6-31.02-23.51-34.76-35.9-75.3-35.82-117.24-.08-41.96,12.31-82.5,35.82-117.25,7.5-11.1,16.11-21.54,25.6-31.03,2.43-2.43,5.67-3.78,9.11-3.78s6.68,1.34,9.11,3.78c5.01,5.01,5.03,13.17.04,18.2-34.04,32.68-53.55,80.08-53.55,130.07,0,49.99,19.52,97.4,53.55,130.07,4.99,5.03,4.98,13.18-.04,18.2-2.43,2.44-5.67,3.78-9.11,3.78Z"/>
        <path class="cls-1" d="M423.01,675.32c1.16,0,2.08-.99,1.99-2.15l-21.53-285.13c-.75-6.52-5.35-11.45-10.72-11.45s-9.97,4.92-10.72,11.44l-21.53,285.13c-.09,1.16.83,2.15,1.99,2.15h60.51Z"/>
        <path class="cls-1" d="M392.75,747.47c-47.88,0-94.34-9.38-138.07-27.88-21.02-8.89-41.29-19.9-60.26-32.71-18.78-12.69-36.44-27.26-52.49-43.31-16.05-16.05-30.62-33.71-43.31-52.49-12.81-18.96-23.82-39.24-32.71-60.26-18.5-43.74-27.88-90.19-27.88-138.07s9.38-94.34,27.88-138.07c8.89-21.02,19.89-41.29,32.71-60.26,12.69-18.78,27.26-36.44,43.31-52.49,16.05-16.05,33.71-30.62,52.49-43.31,18.96-12.81,39.24-23.82,60.26-32.71,43.74-18.5,90.19-27.88,138.07-27.88s94.34,9.38,138.07,27.88c21.02,8.89,41.29,19.89,60.26,32.71,18.78,12.69,36.44,27.26,52.49,43.31,16.05,16.05,30.62,33.71,43.31,52.49,12.81,18.96,23.82,39.24,32.71,60.26,18.5,43.74,27.88,90.19,27.88,138.07s-9.38,94.34-27.88,138.07c-8.89,21.02-19.9,41.29-32.71,60.26-12.69,18.78-27.26,36.44-43.31,52.49-16.05,16.05-33.71,30.62-52.49,43.31-18.96,12.81-39.24,23.82-60.26,32.71-43.74,18.5-90.19,27.88-138.07,27.88ZM392.75,58.04c-184.56,0-334.72,150.15-334.72,334.72s150.15,334.72,334.72,334.72,334.72-150.15,334.72-334.72S577.32,58.04,392.75,58.04Z"/>
      </g>
    </g>
  </g>
</svg>