<?xml version="1.0" encoding="UTF-8"?>
<svg id="Camada_2" xmlns="http://www.w3.org/2000/svg" viewBox="0 0 785.51 785.51">
  <defs>
    <style>
      .cls-1 {
        fill: #1a1a1a;
      }

      .cls-2 {
        fill: #ffe739;
      }
    </style>
  </defs>
  <g id="_Слой_1" data-name="Слой_1">
    <g id="radiation">
      <circle id="_x30_" class="cls-2" cx="392.75" cy="392.75" r="392.75"/>
      <g id="radiation-2" data-name="radiation">
        <path class="cls-1" d="M530.84,65.92c21.02,8.89,41.29,19.9,60.26,32.71,18.78,12.69,36.44,27.26,52.49,43.31,16.05,16.05,30.62,33.71,43.31,52.49,12.81,18.96,23.82,39.24,32.71,60.26,18.5,43.74,27.88,90.19,27.88,138.07s-9.38,94.34-27.88,138.07c-8.89,21.02-19.9,41.29-32.71,60.26-12.69,18.78-27.26,36.44-43.31,52.49-16.05,16.05-33.71,30.62-52.49,43.31-18.96,12.81-39.24,23.82-60.26,32.71-43.74,18.5-90.19,27.88-138.07,27.88s-94.34-9.38-138.07-27.88c-21.02-8.89-41.29-19.89-60.26-32.71-18.78-12.69-36.44-27.26-52.49-43.31-16.05-16.05-30.62-33.71-43.31-52.49-12.81-18.96-23.82-39.24-32.71-60.26-18.5-43.74-27.88-90.19-27.88-138.07s9.38-94.34,27.88-138.07c8.89-21.02,19.89-41.29,32.71-60.26,12.69-18.78,27.26-36.44,43.31-52.49,16.05-16.05,33.71-30.62,52.49-43.31,18.96-12.81,39.24-23.82,60.26-32.71,43.74-18.5,90.19-27.88,138.07-27.88s94.34,9.38,138.07,27.88ZM727.48,392.75c0-184.56-150.15-334.72-334.72-334.72S58.05,208.19,58.05,392.75s150.15,334.72,334.72,334.72,334.72-150.15,334.72-334.72Z"/>
        <g>
          <circle class="cls-1" cx="392.77" cy="393.91" r="54.55"/>
          <path class="cls-1" d="M441.86,454.98c-28.05,22.69-70.12,22.69-98.18,0-.49-.4-1.23-.25-1.52.31l-91.06,178.21c-.24.48-.07,1.06.4,1.33,88.69,50.68,195.13,50.16,282.54,0,.46-.27.64-.85.39-1.33l-91.06-178.21c-.29-.57-1.02-.71-1.52-.31Z"/>
          <path class="cls-1" d="M421.11,320.86c33.68,12.95,54.71,49.38,49.09,85.02-.1.63.39,1.19,1.03,1.16l199.87-10.24c.53-.03.96-.47.95-1.01-.46-102.15-54.12-194.07-141.27-244.69-.46-.27-1.06-.13-1.35.32l-108.8,167.97c-.35.53-.11,1.24.49,1.47Z"/>
          <path class="cls-1" d="M315.33,405.9c-5.63-35.64,15.41-72.07,49.09-85.02.59-.23.83-.94.49-1.47l-108.8-167.97c-.29-.45-.89-.59-1.35-.32-88.24,51.47-141.01,143.91-141.27,244.69,0,.53.42.98.95,1.01l199.87,10.24c.63.03,1.13-.53,1.03-1.16Z"/>
        </g>
      </g>
    </g>
  </g>
</svg>